Coordinates
version=1
nRows=16
nColumns=42
inDegrees=yes

Units are S.I. units (second, meters, Newtons, ...)
If the header above contains a line with 'inDegrees', this indicates whether rotational values are in degrees (yes) or radians (no).

endheader
time	pelvis_tilt	pelvis_list	pelvis_rotation	pelvis_tx	pelvis_ty	pelvis_tz	hip_flexion_r	hip_adduction_r	hip_rotation_r	knee_angle_r	knee_adduction_r	knee_angle_r_beta	ankle_angle_r	subtalar_angle_r	mtp_angle_r	hip_flexion_l	hip_adduction_l	hip_rotation_l	knee_angle_l	knee_adduction_l	knee_angle_l_beta	ankle_angle_l	subtalar_angle_l	mtp_angle_l	lumbar_extension	lumbar_bending	lumbar_rotation	arm_flex_r	arm_add_r	arm_rot_r	elbow_flex_r	pro_sup_r	wrist_flex_r	wrist_dev_r	arm_flex_l	arm_add_l	arm_rot_l	elbow_flex_l	pro_sup_l	wrist_flex_l	wrist_dev_l
      2.98000000	     22.20315762	      1.01698057	      4.30410325	      0.85494911	      0.94379117	     -0.54886008	      4.19085349	     -4.72753355	    -31.40401743	     51.35932915	    -21.73122801	      0.89638940	     14.08531759	     24.26330299	     -7.50175642	    -16.53479637	      6.66213693	     -2.50041562	     21.43813970	     -3.42738968	      0.37416612	     20.39416803	     -6.32818399	     -7.50175642	    -36.80385143	     -2.65287164	      2.95541088	     12.24309551	    -11.71220738	    -17.78221218	     31.27721815	     90.00000001	      0.00000000	      0.00000000	      1.65835709	    -21.47169251	      7.17795146	     69.01664719	     90.00000001	      0.00000000	      0.00000000
      2.99000000	     22.12875014	      0.89388821	      4.18484659	      0.85877066	      0.94386303	     -0.55003875	      4.80545850	     -4.24240357	    -31.14193109	     49.79485584	    -21.36387589	      0.86908418	     13.89279358	     25.52160502	     -7.50168442	    -16.86654268	      6.66793930	     -2.56866286	     21.10237505	     -3.45765180	      0.36830592	     20.49039590	     -6.29197496	     -7.50168442	    -36.79134621	     -2.60442450	      2.98821383	     11.96023034	    -11.75102987	    -18.07458798	     31.04131675	     90.00000001	      0.00000000	      0.00000000	      1.59030022	    -21.45347612	      6.98924838	     68.84747065	     90.00000001	      0.00000000	      0.00000000
      3.00000000	     22.01457328	      0.81283792	      4.04085780	      0.86260293	      0.94381640	     -0.55109067	      5.44245707	     -3.79620072	    -30.93599933	     48.19028505	    -21.07215432	      0.84107914	     13.69323669	     27.01511098	     -7.50159924	    -17.15170361	      6.72003036	     -2.63730799	     20.77732653	     -3.47518520	      0.36263276	     20.60883334	     -6.26558092	     -7.50159924	    -36.73893635	     -2.62219160	      3.02281607	     11.66909259	    -11.75376372	    -18.46716084	     30.84994997	     90.00000001	      0.00000000	      0.00000000	      1.51482333	    -21.46107436	      6.81972394	     68.74198005	     90.00000001	      0.00000000	      0.00000000
      3.01000000	     21.89999441	      0.71000472	      3.87508626	      0.86644775	      0.94373793	     -0.55206888	      6.02518247	     -3.32488552	    -30.41811983	     46.64670114	    -20.50273649	      0.81413852	     13.49765074	     28.05451272	     -7.50154432	    -17.42934931	      6.74954792	     -2.79515070	     20.45747867	     -3.50707659	      0.35705036	     20.74669365	     -6.20673469	     -7.50154432	    -36.68091770	     -2.62712183	      3.09277470	     11.37547403	    -11.78682986	    -18.71820631	     30.60333945	     90.00000001	      0.00000000	      0.00000000	      1.45255370	    -21.44966510	      6.68379231	     68.61930511	     90.00000001	      0.00000000	      0.00000000
      3.02000000	     21.78010431	      0.63389642	      3.73391961	      0.87032392	      0.94359712	     -0.55304987	      6.56259364	     -2.89124170	    -30.06278057	     45.03611652	    -20.01963480	      0.78602852	     13.29100208	     29.26037435	     -7.50148780	    -17.70144499	      6.80141972	     -2.93655282	     20.14370033	     -3.55008607	      0.35157389	     20.88400898	     -6.09048777	     -7.50148780	    -36.61642657	     -2.64443151	      3.13015869	     11.07509223	    -11.79029910	    -19.07543420	     30.40803462	     90.00000001	      0.00000000	      0.00000000	      1.36953054	    -21.44121529	      6.55567089	     68.56500152	     90.00000001	      0.00000000	      0.00000000
      3.03000000	     21.48875975	      0.65736760	      3.55679125	      0.87403365	      0.94305084	     -0.55403940	      7.33120875	     -2.59358276	    -29.37602496	     43.73491779	    -19.37478925	      0.76331831	     13.25467322	     29.49431181	     -7.50146503	    -17.70126155	      7.04066627	     -3.12761020	     19.99385537	     -3.73716140	      0.34895861	     21.14781922	     -6.03794880	     -7.50146503	    -36.39605959	     -2.77827369	      3.12394351	     10.73597454	    -11.82812388	    -19.15221260	     30.28755948	     90.00000001	      0.00000000	      0.00000000	      1.29008098	    -21.47159701	      6.50183816	     68.54343893	     90.00000001	      0.00000000	      0.00000000
      3.04000000	     21.50763494	      0.51372745	      3.45709600	      0.87812890	      0.94313681	     -0.55494994	      7.55378223	     -2.07009088	    -29.22271715	     41.91887756	    -18.95128030	      0.73162243	     12.92995263	     31.23666150	     -7.50141059	    -18.17247469	      6.91236352	     -3.35206862	     19.58862261	     -3.61035437	      0.34188596	     21.22555828	     -5.70273843	     -7.50141059	    -36.44667765	     -2.69574711	      3.20032615	     10.46118400	    -11.82347640	    -19.77343565	     29.99579570	     90.00000001	      0.00000000	      0.00000000	      1.21257283	    -21.41504705	      6.38151372	     68.51262394	     90.00000001	      0.00000000	      0.00000000
      3.05000000	     21.33645578	      0.47365415	      3.28443753	      0.88200478	      0.94279521	     -0.55577003	      8.04010694	     -1.71430465	    -28.66677007	     40.49124143	    -18.27854282	      0.70670548	     12.88820368	     31.93844697	     -7.50138168	    -18.35189927	      6.99278321	     -3.60966324	     19.34294903	     -3.63316000	      0.33759815	     21.40662932	     -5.53552086	     -7.50138168	    -36.33548680	     -2.77028795	      3.26763299	     10.17762272	    -11.84380544	    -20.00960115	     29.71526648	     90.00000001	      0.00000000	      0.00000000	      1.17579152	    -21.41820748	      6.34646308	     68.49191313	     90.00000001	      0.00000000	      0.00000000
      3.06000000	     21.07233703	      0.55142602	      3.19447875	      0.88580342	      0.94219595	     -0.55683169	      8.64732555	     -1.53481788	    -28.30363608	     39.23672739	    -17.74003003	      0.68481008	     12.93121008	     32.05802389	     -7.50136573	    -18.37812686	      7.26674017	     -3.75719305	     19.21970381	     -3.86070109	      0.33544711	     21.64645418	     -5.44628684	     -7.50136573	    -36.14752747	     -2.90228558	      3.17702039	      9.84095678	    -11.85941494	    -20.12080461	     29.60540064	     90.00000001	      0.00000000	      0.00000000	      1.11013489	    -21.42506681	      6.33342613	     68.52002929	     90.00000001	      0.00000000	      0.00000000
      3.07000000	     21.04014869	      0.44737784	      3.08882717	      0.88989112	      0.94207476	     -0.55771598	      8.81735616	     -1.10486021	    -27.92540250	     37.67338074	    -17.15156330	      0.65752453	     12.80947734	     33.08153640	     -7.50134912	    -18.76674762	      7.20048468	     -3.94051359	     18.88095513	     -3.75103724	      0.32953483	     21.73984588	     -5.17848006	     -7.50134912	    -36.15010371	     -2.84988534	      3.24570238	      9.55795802	    -11.89564136	    -20.45756403	     29.25521444	     90.00000001	      0.00000000	      0.00000000	      1.04879172	    -21.39223378	      6.32612272	     68.52086672	     90.00000001	      0.00000000	      0.00000000
      3.08000000	     20.93379200	      0.43704361	      3.04866738	      0.89385752	      0.94175312	     -0.55868993	      9.10849755	     -0.85237973	    -27.84013953	     36.32931219	    -16.67638900	      0.63406611	     12.74571623	     33.67561666	     -7.50133360	    -19.01210071	      7.28367148	     -4.07875482	     18.66874517	     -3.81495360	      0.32583107	     21.91650123	     -4.95629430	     -7.50133360	    -36.11249606	     -2.86997040	      3.20218249	      9.28916414	    -11.89767484	    -20.77641625	     29.05060319	     90.00000001	      0.00000000	      0.00000000	      1.01960384	    -21.37621871	      6.33492872	     68.55588661	     90.00000001	      0.00000000	      0.00000000
      3.09000000	     20.89229206	      0.38040747	      3.03766001	      0.89796400	      0.94154189	     -0.55965297	      9.25983062	     -0.56502800	    -27.80862562	     35.00540125	    -16.19010032	      0.61095951	     12.63085587	     34.40099065	     -7.50131677	    -19.34465284	      7.25870067	     -4.23275162	     18.43949156	     -3.77678196	      0.32182984	     22.07747431	     -4.67805601	     -7.50131677	    -36.12361679	     -2.82874210	      3.18049849	      9.01612318	    -11.87904619	    -21.20310567	     28.77310366	     90.00000001	      0.00000000	      0.00000000	      0.98540412	    -21.32217319	      6.38098656	     68.58745968	     90.00000001	      0.00000000	      0.00000000
      3.10000000	     20.91097306	      0.24528537	      3.05121502	      0.90217435	      0.94141346	     -0.56048772	      9.26895400	     -0.16684158	    -27.78336930	     33.65359224	    -15.71177577	      0.58736599	     12.38305246	     35.07100436	     -7.50128713	    -19.73337218	      7.11883435	     -4.34751300	     18.27712984	     -3.72484917	      0.31899609	     22.25192943	     -4.22341055	     -7.50128713	    -36.18309718	     -2.69658351	      3.19768543	      8.77073275	    -11.82895022	    -21.88335689	     28.46690055	     90.00000001	      0.00000000	      0.00000000	      0.93197122	    -21.32537444	      6.44412497	     68.59570651	     90.00000001	      0.00000000	      0.00000000
      3.11000000	     20.71033624	      0.36401510	      3.02858804	      0.90619174	      0.94077776	     -0.56165633	      9.63583018	     -0.16074945	    -27.79489516	     32.75891093	    -15.29868274	      0.57175086	     12.52583775	     34.97397296	     -7.50127374	    -19.82526403	      7.41576315	     -4.51749553	     18.16899837	     -3.95388023	      0.31710884	     22.57241640	     -4.17978443	     -7.50127374	    -36.05451643	     -2.81851742	      3.09938096	      8.45190628	    -11.89303395	    -22.03012037	     28.28142626	     90.00000001	      0.00000000	      0.00000000	      0.94142304	    -21.25577713	      6.48925348	     68.64831882	     90.00000001	      0.00000000	      0.00000000
      3.12000000	     20.79794488	      0.24916506	      3.10107510	      0.91052103	      0.94070640	     -0.56268607	      9.50215019	      0.16203548	    -27.86320036	     31.60681619	    -14.87423027	      0.55164301	     12.33078862	     35.61434195	     -7.50125176	    -20.33445217	      7.27599687	     -4.45812793	     17.93963438	     -3.82701235	      0.31310569	     22.69694915	     -3.93889471	     -7.50125176	    -36.16833881	     -2.64288095	      3.05096761	      8.26579805	    -11.88683550	    -22.59953879	     27.87606179	     90.00000001	      0.00000000	      0.00000000	      0.89791113	    -21.22065929	      6.61892232	     68.65181758	     90.00000001	      0.00000000	      0.00000000
      3.13000000	     20.72984126	      0.27202950	      3.14499527	      0.91478710	      0.94025426	     -0.56375905	      9.62001594	      0.29193206	    -27.90766368	     30.81436348	    -14.53742391	      0.53781210	     12.32076096	     35.72038284	     -7.50123815	    -20.60760218	      7.40408997	     -4.42147416	     17.84050971	     -3.96353490	      0.31137563	     22.91854152	     -3.89082025	     -7.50123815	    -36.14435774	     -2.63474336	      2.94896818	      8.00566407	    -11.87538055	    -22.87464516	     27.63605534	     90.00000001	      0.00000000	      0.00000000	      0.87621670	    -21.14187669	      6.70980376	     68.66503414	     90.00000001	      0.00000000	      0.00000000
